<?xml version="1.0" encoding="UTF-8"?>
<svg version="1.1" xmlns="http://www.w3.org/2000/svg" width="591" height="174">
<path d="M0 0 C6.414788 5.28758883 11.03803599 11.73531052 12.4453125 20.015625 C13.42427807 30.33147469 12.20249524 39.05595583 6.6328125 47.890625 C-0.49883244 54.81850865 -7.57128505 57.87823873 -17.5546875 58.015625 C-24.49870749 57.23162274 -30.74729147 54.29718533 -35.4296875 49.078125 C-37.50534305 46.08673906 -38.4648142 44.61055708 -38.5546875 41.015625 C-37.56701458 36.6159911 -36.39340841 33.51079359 -32.5546875 31.015625 C-27.57867235 30.36196127 -23.79284797 30.19018469 -19.5546875 33.015625 C-19.5546875 33.675625 -19.5546875 34.335625 -19.5546875 35.015625 C-15.36450364 35.41389908 -15.36450364 35.41389908 -11.7421875 33.640625 C-9.3384789 30.35133955 -9.16481362 28.07031332 -9.5546875 24.015625 C-12.02902029 19.16212607 -14.37200605 16.74318548 -19.5546875 15.015625 C-25.51995937 14.31611429 -30.51467054 14.46470396 -35.5546875 18.015625 C-41.56297644 23.58612404 -45.62649633 30.55268469 -46.1171875 38.828125 C-45.63440619 47.98677047 -41.95035227 55.1722029 -35.4296875 61.515625 C-30.21056139 65.92147265 -25.10367071 68.25669201 -18.5546875 70.015625 C-17.5646875 70.345625 -16.5746875 70.675625 -15.5546875 71.015625 C-1.08857842 71.92742824 8.55423188 69.43217934 20.4453125 61.015625 C20.7753125 60.685625 21.1053125 60.355625 21.4453125 60.015625 C24.49928802 59.57393433 27.39561327 59.53846117 30.4453125 60.015625 C33.20100697 62.19721645 34.88119997 63.88739994 36.4453125 67.015625 C36.57888703 70.68892464 36.6124693 73.51415459 35.4453125 77.015625 C34.7853125 77.015625 34.1253125 77.015625 33.4453125 77.015625 C32.9503125 78.500625 32.9503125 78.500625 32.4453125 80.015625 C19.78892252 90.20836655 2.62771055 95.44280662 -13.5546875 94.015625 C-26.96931456 92.35202976 -39.06032808 87.76092452 -49.5546875 79.015625 C-49.5546875 78.355625 -49.5546875 77.695625 -49.5546875 77.015625 C-50.2146875 77.015625 -50.8746875 77.015625 -51.5546875 77.015625 C-62.11080143 66.26931082 -67.44348048 53.6101332 -67.9296875 38.765625 C-67.72722381 26.85599603 -64.12603572 16.32129682 -56.5546875 7.015625 C-55.8946875 7.015625 -55.2346875 7.015625 -54.5546875 7.015625 C-54.31878906 6.42910156 -54.08289062 5.84257813 -53.83984375 5.23828125 C-50.22193515 -1.01883119 -42.22873731 -4.57862611 -35.51171875 -6.49609375 C-34.86589844 -6.65722656 -34.22007813 -6.81835938 -33.5546875 -6.984375 C-32.6884375 -7.21125 -31.8221875 -7.438125 -30.9296875 -7.671875 C-19.83635774 -9.13152365 -9.18015862 -6.36990598 0 0 Z " fill="#375793" transform="translate(102.5546875,43.984375)"/>
<path d="M0 0 C1.77074917 -0.02705729 3.54161711 -0.04642195 5.3125 -0.0625 C6.29863281 -0.07410156 7.28476562 -0.08570312 8.30078125 -0.09765625 C11 0 11 0 14 1 C14.66 0.67 15.32 0.34 16 0 C21.67983816 -0.52274617 26.35705072 -0.71435943 31 3 C31.9590625 2.2575 31.9590625 2.2575 32.9375 1.5 C37.51991245 -0.74444692 42.2024481 -0.86279638 47.08984375 0.64453125 C50.03966625 2.73775908 50.78611167 4.58006694 52 8 C52.34334471 11.63583972 52.28388191 15.22731524 52.1875 18.875 C52.16719727 20.33679688 52.16719727 20.33679688 52.14648438 21.828125 C52.11131962 24.21932863 52.0621067 26.60936975 52 29 C53.65 29.33 55.3 29.66 57 30 C57 31.32 57 32.64 57 34 C51.39 34 45.78 34 40 34 C40.33 32.35 40.66 30.7 41 29 C42.32 29 43.64 29 45 29 C44.88562349 26.27001324 44.75888594 23.5415418 44.625 20.8125 C44.5940625 20.04357422 44.563125 19.27464844 44.53125 18.48242188 C44.31383889 14.26102289 43.90256928 10.85927672 42 7 C39.12586875 6.66602213 39.12586875 6.66602213 36 7 C33.1803823 9.44721536 32.7702465 11.76384332 32.48828125 15.328125 C32.41553672 16.96818349 32.35737267 18.6089424 32.3125 20.25 C32.27833984 21.09046875 32.24417969 21.9309375 32.20898438 22.796875 C32.12676432 24.86412204 32.06169843 26.93203874 32 29 C33.65 29.33 35.3 29.66 37 30 C37 31.32 37 32.64 37 34 C31.39 34 25.78 34 20 34 C20.33 32.35 20.66 30.7 21 29 C22.32 29 23.64 29 25 29 C24.88562349 26.27001324 24.75888594 23.5415418 24.625 20.8125 C24.5940625 20.04357422 24.563125 19.27464844 24.53125 18.48242188 C24.31383889 14.26102289 23.90256928 10.85927672 22 7 C18.58343976 6.83322718 18.58343976 6.83322718 15 7 C12.56085508 9.43914492 12.71337477 10.21446431 12.5859375 13.5703125 C12.52792969 14.91416016 12.52792969 14.91416016 12.46875 16.28515625 C12.42234375 17.69087891 12.42234375 17.69087891 12.375 19.125 C12.31699219 20.54232422 12.31699219 20.54232422 12.2578125 21.98828125 C12.16338654 24.32532375 12.07781606 26.66235501 12 29 C13.65 29.33 15.3 29.66 17 30 C17 31.32 17 32.64 17 34 C11.39 34 5.78 34 0 34 C0.33 32.35 0.66 30.7 1 29 C2.32 29 3.64 29 5 29 C5 21.41 5 13.82 5 6 C3.35 5.67 1.7 5.34 0 5 C0 3.35 0 1.7 0 0 Z " fill="#254272" transform="translate(423,85)"/>
<path d="M0 0 C3.83307169 -0.11719175 7.66567608 -0.18758077 11.5 -0.25 C12.57765625 -0.28351563 13.6553125 -0.31703125 14.765625 -0.3515625 C21.33394227 -0.43166393 26.61260547 -0.02773451 32 4 C37.52466821 9.87781602 39.4773582 16.67284562 39.24609375 24.671875 C38.46365841 32.0739617 35.61077893 38.04769879 30 43 C26.59525486 45.12983844 23.89833107 45.23429736 19.921875 45.1953125 C18.18164062 45.18564453 18.18164062 45.18564453 16.40625 45.17578125 C15.1996875 45.15902344 13.993125 45.14226562 12.75 45.125 C10.91695312 45.11146484 10.91695312 45.11146484 9.046875 45.09765625 C6.03105218 45.07409513 3.01562508 45.04119706 0 45 C0.33 43.35 0.66 41.7 1 40 C2.32 40 3.64 40 5 40 C5 28.45 5 16.9 5 5 C3.35 5 1.7 5 0 5 C0 3.35 0 1.7 0 0 Z M13 5 C13 16.55 13 28.1 13 40 C21.19779655 40.29294507 21.19779655 40.29294507 27 36 C30.81530664 30.96426918 31.63273264 25.91312501 31.390625 19.6875 C30.4633959 13.30816381 28.11234336 9.83425752 23 6 C19.7 5.67 16.4 5.34 13 5 Z " fill="#264172" transform="translate(152,74)"/>
<path d="M0 0 C3.87485635 -0.08751413 7.74945643 -0.14056435 11.625 -0.1875 C13.26662109 -0.22520508 13.26662109 -0.22520508 14.94140625 -0.26367188 C21.739739 -0.3254749 26.57058539 -0.09233539 31.828125 4.6484375 C32.29734375 5.21820313 32.7665625 5.78796875 33.25 6.375 C33.72953125 6.93960938 34.2090625 7.50421875 34.703125 8.0859375 C39.20643174 14.73238419 38.74909873 22.31188148 38 30 C36.19527981 36.50538672 33.29127276 40.57999452 27.4921875 44.01855469 C22.50165856 45.98386879 17.2791963 45.50903365 12 45.3125 C10.84371094 45.28994141 9.68742187 45.26738281 8.49609375 45.24414062 C5.66269566 45.18559934 2.83204636 45.10365035 0 45 C0.33 43.35 0.66 41.7 1 40 C2.32 40 3.64 40 5 40 C5 28.45 5 16.9 5 5 C3.35 5 1.7 5 0 5 C0 3.35 0 1.7 0 0 Z M12 5 C12 16.55 12 28.1 12 40 C20.44377262 40.22649115 20.44377262 40.22649115 27 36 C30.80861741 30.10102073 31.57417745 24.35623876 30.61328125 17.484375 C29.24176566 11.92842648 26.4778724 9.3584043 22 6 C18.7 5.67 15.4 5.34 12 5 Z " fill="#254171" transform="translate(269,74)"/>
<path d="M0 0 C1.79133978 -0.05391993 3.58313899 -0.09275571 5.375 -0.125 C6.37273437 -0.14820312 7.37046875 -0.17140625 8.3984375 -0.1953125 C11 0 11 0 13 2 C13.99 1.34 14.98 0.68 16 0 C20.54946555 -0.59374381 24.72295801 -0.50549579 29 1.1875 C31.91865237 3.83252871 32.87210029 6.59434095 33.22705078 10.49536133 C33.21657715 11.3489624 33.20610352 12.20256348 33.1953125 13.08203125 C33.18886719 14.01337891 33.18242187 14.94472656 33.17578125 15.90429688 C33.15902344 16.86400391 33.14226562 17.82371094 33.125 18.8125 C33.11597656 19.79154297 33.10695313 20.77058594 33.09765625 21.77929688 C33.07417182 24.18645061 33.0413284 26.59309743 33 29 C34.65 29.33 36.3 29.66 38 30 C38 31.32 38 32.64 38 34 C32.06 34 26.12 34 20 34 C20 32.68 20 31.36 20 30 C21.65 29.67 23.3 29.34 25 29 C24.86145912 25.70798357 24.71292976 22.41649291 24.5625 19.125 C24.52318359 18.18785156 24.48386719 17.25070313 24.44335938 16.28515625 C24.40146484 15.38925781 24.35957031 14.49335937 24.31640625 13.5703125 C24.27974854 12.74289551 24.24309082 11.91547852 24.20532227 11.06298828 C24.11761673 8.93820571 24.11761673 8.93820571 23 7 C17.67829506 6.70437633 17.67829506 6.70437633 13 9 C12.49297483 11.12106795 12.49297483 11.12106795 12.48828125 13.5703125 C12.45283203 14.46621094 12.41738281 15.36210938 12.38085938 16.28515625 C12.34702148 17.69087891 12.34702148 17.69087891 12.3125 19.125 C12.27833984 20.06988281 12.24417969 21.01476562 12.20898438 21.98828125 C12.12635888 24.32540253 12.05726012 26.66214191 12 29 C13.65 29.33 15.3 29.66 17 30 C17 31.32 17 32.64 17 34 C11.39 34 5.78 34 0 34 C0.33 32.35 0.66 30.7 1 29 C2.32 29 3.64 29 5 29 C5 21.41 5 13.82 5 6 C3.35 5.67 1.7 5.34 0 5 C0 3.35 0 1.7 0 0 Z " fill="#254172" transform="translate(347,85)"/>
<path d="M0 0 C5.28 0 10.56 0 16 0 C16 1.65 16 3.3 16 5 C15.01 5.66 14.02 6.32 13 7 C14.98 11.95 16.96 16.9 19 22 C20.98 16.72 22.96 11.44 25 6 C24.01 5.67 23.02 5.34 22 5 C22 3.35 22 1.7 22 0 C26.95 0 31.9 0 37 0 C37 1.65 37 3.3 37 5 C36.01 5.33 35.02 5.66 34 6 C32.78530245 8.59606245 31.75984516 11.11102478 30.78515625 13.796875 C30.33963661 14.97555145 30.33963661 14.97555145 29.88511658 16.17803955 C28.9333708 18.69810235 27.99655131 21.22332996 27.0625 23.75 C26.13130453 26.2620846 25.19669987 28.77260362 24.25059509 31.27911377 C23.66174669 32.83954463 23.08137553 34.40320877 22.51075745 35.97039795 C20.89922402 40.24592544 19.2356356 43.66014363 16 47 C12.52674819 48.1577506 9.63932552 48.06866652 6 48 C5 46 5 46 5.0625 44 C5.371875 43.34 5.68125 42.68 6 42 C7.99571323 41.32060826 9.99594773 40.65438441 12 40 C14.06740929 37.57304127 14.01587402 36.23874525 13.8046875 33.0625 C12.95805509 27.66442797 10.75044846 22.71449281 8.6875 17.6875 C8.29626953 16.68654297 7.90503906 15.68558594 7.50195312 14.65429688 C7.11330078 13.69974609 6.72464844 12.74519531 6.32421875 11.76171875 C5.7996106 10.4617395 5.7996106 10.4617395 5.2644043 9.13549805 C3.80339001 6.66793829 2.64404418 6.00130514 0 5 C0 3.35 0 1.7 0 0 Z " fill="#254171" transform="translate(308,85)"/>
<path d="M0 0 C1.1034375 -0.00773437 2.206875 -0.01546875 3.34375 -0.0234375 C7.84547785 0.54484993 10.28936948 1.99867612 13.26953125 5.38671875 C15.13134407 9.90826417 15.07357502 14.34080596 15.1875 19.1875 C15.23874023 20.65606445 15.23874023 20.65606445 15.29101562 22.15429688 C15.37319858 24.56108345 15.44244433 26.96751945 15.5 29.375 C16.16 29.705 16.82 30.035 17.5 30.375 C17.5 31.695 17.5 33.015 17.5 34.375 C14.2 34.375 10.9 34.375 7.5 34.375 C7.5 33.715 7.5 33.055 7.5 32.375 C6.695625 32.87 5.89125 33.365 5.0625 33.875 C0.68897935 35.71648238 -2.81833899 36.0302601 -7.5 35.375 C-12.04054054 33.29391892 -12.04054054 33.29391892 -13.5 30.375 C-14.0364289 25.89889655 -14.08328477 22.42939939 -11.875 18.4375 C-6.38963963 13.67389757 -0.38893517 14.12993907 6.5 14.375 C5.84 12.065 5.18 9.755 4.5 7.375 C0.80458414 6.42475021 -1.80458414 6.42475021 -5.5 7.375 C-5.5 9.025 -5.5 10.675 -5.5 12.375 C-7.48 12.375 -9.46 12.375 -11.5 12.375 C-11.63536774 10.94010191 -11.73217143 9.50152893 -11.8125 8.0625 C-11.87050781 7.26199219 -11.92851562 6.46148437 -11.98828125 5.63671875 C-11.5 3.375 -11.5 3.375 -9.38671875 1.60546875 C-6.04898421 0.18275376 -3.6199997 -0.02537383 0 0 Z M-6.5 24.375 C-5.84 26.025 -5.18 27.675 -4.5 29.375 C-0.80787163 29.7184538 1.10790131 29.596621 4.375 27.75 C6.81200893 25.49817521 6.81200893 25.49817521 6.8125 22.125 C6.709375 21.2175 6.60625 20.31 6.5 19.375 C0.11498769 18.83389726 -2.2797731 19.09971638 -6.5 24.375 Z " fill="#254171" transform="translate(227.5,84.625)"/>
<path d="M0 0 C3.03745622 2.35950026 4.04978829 4.38544601 4.54150391 8.20019531 C4.58863525 9.55129395 4.58863525 9.55129395 4.63671875 10.9296875 C4.67539062 11.909375 4.7140625 12.8890625 4.75390625 13.8984375 C4.78484375 14.91421875 4.81578125 15.93 4.84765625 16.9765625 C4.88632812 18.0078125 4.925 19.0390625 4.96484375 20.1015625 C5.05897299 22.6430519 5.14460604 25.18453683 5.22265625 27.7265625 C5.88265625 28.0565625 6.54265625 28.3865625 7.22265625 28.7265625 C7.22265625 30.0465625 7.22265625 31.3665625 7.22265625 32.7265625 C3.92265625 32.7265625 0.62265625 32.7265625 -2.77734375 32.7265625 C-2.77734375 32.0665625 -2.77734375 31.4065625 -2.77734375 30.7265625 C-3.39609375 31.2215625 -4.01484375 31.7165625 -4.65234375 32.2265625 C-9.0448875 34.3349835 -12.98270461 34.45874877 -17.77734375 33.7265625 C-20.7115757 31.93009396 -22.2493973 30.7824554 -23.77734375 27.7265625 C-24.47415005 20.64236507 -24.47415005 20.64236507 -21.58984375 16.8515625 C-17.08662326 13.44912924 -13.58587657 12.46611593 -7.96484375 12.6015625 C-6.50111328 12.62863281 -6.50111328 12.62863281 -5.0078125 12.65625 C-4.27175781 12.67945312 -3.53570312 12.70265625 -2.77734375 12.7265625 C-3.9075063 9.19963578 -3.9075063 9.19963578 -5.77734375 5.7265625 C-8.66376748 4.4683778 -10.0391995 4.50101842 -13.02734375 5.4140625 C-14.95646569 6.6081109 -14.95646569 6.6081109 -15.52734375 8.8515625 C-15.60984375 9.4703125 -15.69234375 10.0890625 -15.77734375 10.7265625 C-17.75734375 10.7265625 -19.73734375 10.7265625 -21.77734375 10.7265625 C-21.77734375 7.7565625 -21.77734375 4.7865625 -21.77734375 1.7265625 C-15.63498209 -2.48534264 -6.76722675 -3.10283533 0 0 Z M-14.33984375 18.8515625 C-16.36477693 21.49277969 -16.06482928 23.49235033 -15.77734375 26.7265625 C-12.05189575 27.5300905 -9.54268999 27.99276989 -5.90234375 26.7265625 C-2.96635124 23.96327543 -2.99959559 21.65301161 -2.77734375 17.7265625 C-8.70372357 17.33346442 -8.70372357 17.33346442 -14.33984375 18.8515625 Z " fill="#254070" transform="translate(411.77734375,86.2734375)"/>
<path d="M0 0 C1.69576172 -0.03867188 1.69576172 -0.03867188 3.42578125 -0.078125 C7.03521861 0.28498008 8.90241191 0.93599559 11.6875 3.25 C12.35663403 6.04965679 11.92618841 8.33800141 11.6875 11.25 C9.7075 11.25 7.7275 11.25 5.6875 11.25 C5.3575 9.6 5.0275 7.95 4.6875 6.25 C0.2325 6.745 0.2325 6.745 -4.3125 7.25 C-4.6425 8.9 -4.9725 10.55 -5.3125 12.25 C-4.57644531 12.43175781 -3.84039063 12.61351563 -3.08203125 12.80078125 C2.95260024 14.35527681 7.85806506 15.70350856 12.5625 19.9375 C14.28262061 23.47330347 13.82134114 26.54408969 12.6875 30.25 C10.43298302 33.18087207 9.20307135 34.07814288 5.6875 35.25 C-0.97191558 35.66864747 -7.01946751 35.53837545 -13.3125 33.25 C-13.3125 30.28 -13.3125 27.31 -13.3125 24.25 C-11.3325 24.25 -9.3525 24.25 -7.3125 24.25 C-6.9825 25.9 -6.6525 27.55 -6.3125 29.25 C-5.054375 29.29125 -3.79625 29.3325 -2.5 29.375 C-1.79230469 29.39820312 -1.08460938 29.42140625 -0.35546875 29.4453125 C2.00109719 29.38254462 2.00109719 29.38254462 4.6875 27.25 C4.6875 25.93 4.6875 24.61 4.6875 23.25 C3.63949219 22.86328125 2.59148438 22.4765625 1.51171875 22.078125 C0.13256482 21.55273303 -1.24632798 21.02665524 -2.625 20.5 C-3.31529297 20.24734375 -4.00558594 19.9946875 -4.71679688 19.734375 C-8.63830413 18.21881664 -11.32674179 17.0517304 -13.3125 13.25 C-13.8125 9.8125 -13.8125 9.8125 -13.3125 6.25 C-9.05025674 1.09044236 -6.52876099 0.08872608 0 0 Z " fill="#254070" transform="translate(550.3125,84.75)"/>
<path d="M0 0 C2.84691964 1.19559902 4.80824553 2.80824553 7 5 C7.14115161 7.67058851 7.04247107 10.32432238 7 13 C4.69 13 2.38 13 0 13 C-0.66 11.02 -1.32 9.04 -2 7 C-4.72321308 6.24355192 -6.45808824 5.82968488 -9.1875 6.6875 C-11.40808952 8.2955131 -11.98107796 9.46147872 -13 12 C-13.5617915 16.89561166 -13.49964455 21.50106634 -11.9375 26.1875 C-10.00981079 28.31870795 -10.00981079 28.31870795 -6.5625 28.625 C-2.85101068 28.3785172 -2.85101068 28.3785172 -1 25.5 C-0.01 24.2625 -0.01 24.2625 1 23 C4.75 22.6875 4.75 22.6875 8 23 C6.88744102 27.82108893 5.94630932 30.8907866 2 34 C-3.45115277 35.81705092 -9.61999011 36.08200702 -14.875 33.5 C-18.78866125 30.84463173 -20.72828705 27.5074323 -22 23 C-22.99789722 15.93241867 -22.34324788 9.80465519 -18 4 C-12.91930388 -1.08069612 -6.78691753 -0.95629618 0 0 Z " fill="#254171" transform="translate(525,85)"/>
<path d="M0 0 C4.29 0 8.58 0 13 0 C13 14.19 13 28.38 13 43 C14.65 43.33 16.3 43.66 18 44 C18 45.32 18 46.64 18 48 C12.06 48 6.12 48 0 48 C0.33 46.35 0.66 44.7 1 43 C2.32 43 3.64 43 5 43 C5 30.46 5 17.92 5 5 C3.35 4.67 1.7 4.34 0 4 C0 2.68 0 1.36 0 0 Z " fill="#264272" transform="translate(248,71)"/>
<path d="M0 0 C4.29 0 8.58 0 13 0 C13 9.57 13 19.14 13 29 C14.65 29.33 16.3 29.66 18 30 C18 31.32 18 32.64 18 34 C12.06 34 6.12 34 0 34 C0 32.68 0 31.36 0 30 C1.65 29.67 3.3 29.34 5 29 C5 21.41 5 13.82 5 6 C3.35 5.67 1.7 5.34 0 5 C0 3.35 0 1.7 0 0 Z " fill="#254272" transform="translate(193,85)"/>
<path d="M0 0 C3.96 0 7.92 0 12 0 C12 9.57 12 19.14 12 29 C13.65 29.33 15.3 29.66 17 30 C17 31.32 17 32.64 17 34 C11.39 34 5.78 34 0 34 C0.33 32.35 0.66 30.7 1 29 C2.32 29 3.64 29 5 29 C5 21.41 5 13.82 5 6 C3.35 5.67 1.7 5.34 0 5 C0 3.35 0 1.7 0 0 Z " fill="#254272" transform="translate(483,85)"/>
<path d="M0 0 C2.64 0 5.28 0 8 0 C8 2.31 8 4.62 8 7 C5.36 7 2.72 7 0 7 C0 4.69 0 2.38 0 0 Z " fill="#254272" transform="translate(198,71)"/>
<path d="M0 0 C2.31 0 4.62 0 7 0 C7 2.31 7 4.62 7 7 C4.69 7 2.38 7 0 7 C0 4.69 0 2.38 0 0 Z " fill="#264273" transform="translate(488,71)"/>
</svg>
